<svg xmlns="http://www.w3.org/2000/svg" xmlns:xlink="http://www.w3.org/1999/xlink" viewBox="0 0 805 512"><defs><style>.cls-1{fill:url(#未命名漸層_33);}.cls-2{fill:url(#未命名漸層_33-2);}.cls-3{fill:url(#未命名漸層_30);}.cls-4{fill:#ffee4a;}.cls-5{fill:#674b00;}.cls-6{fill:#7e5400;}.cls-7{fill:#fff;}.cls-8{fill:#d3d3d3;}</style><linearGradient id="未命名漸層_33" x1="233.02" y1="133.52" x2="194.75" y2="64.73" gradientUnits="userSpaceOnUse"><stop offset="0" stop-color="#b47900"/><stop offset="0.39" stop-color="#cfa31b"/><stop offset="1" stop-color="#ffee4a"/></linearGradient><linearGradient id="未命名漸層_33-2" x1="543.88" y1="142.46" x2="613.34" y2="59.48" xlink:href="#未命名漸層_33"/><linearGradient id="未命名漸層_30" x1="427.22" y1="620.09" x2="407.81" y2="313.7" gradientUnits="userSpaceOnUse"><stop offset="0" stop-color="#b47900"/><stop offset="0.58" stop-color="#de9f11"/><stop offset="1" stop-color="#ffbc1e"/></linearGradient></defs><g id="圖層_2" data-name="圖層 2"><path class="cls-1" d="M213.46,98.36l-56.93,46.11,2.61-55,2.08-43.77a10,10,0,0,1,11.6-9.39l43.25,7,54.32,8.85Z"/><path class="cls-2" d="M590.7,86.53,529.89,45.67,583.2,32l42.45-10.87A10,10,0,0,1,638,29.46l6,43.42,7.49,54.52Z"/><path class="cls-3" d="M494.27,30.58v68c0,5.83-5.15,10.56-11.5,10.56h0c-6.36,0-11.5-4.73-11.5-10.56V25.76a377.92,377.92,0,0,0-54.5-5.55V98.53c0,5.83-5.15,10.56-11.5,10.56h0c-6.36,0-11.5-4.73-11.5-10.56V20.21a377.78,377.78,0,0,0-54.5,5.55V98.53c0,5.83-5.15,10.56-11.5,10.56h0c-6.36,0-11.5-4.73-11.5-10.56V30.58C194,60.41,105.27,150.05,105.27,256c0,130.33,0,236,300,236s300-105.66,300-236C705.27,150.05,616.49,60.41,494.27,30.58Z"/><path class="cls-4" d="M405.27,117h0a11.5,11.5,0,0,0,11.5-11.5V20.21c-3.82-.13-7.65-.21-11.5-.21s-7.69.08-11.5.21V105.5A11.5,11.5,0,0,0,405.27,117Z"/><path class="cls-4" d="M327.77,117h0a11.5,11.5,0,0,0,11.5-11.5V26.25q-11.68,2.25-23,5.25v74A11.5,11.5,0,0,0,327.77,117Z"/><path class="cls-4" d="M482.77,117h0a11.5,11.5,0,0,0,11.5-11.5v-74q-11.32-3-23-5.25V105.5A11.5,11.5,0,0,0,482.77,117Z"/><path class="cls-5" d="M413.81,292.77c.32,22.89.33,48.08,0,71-.33-22.89-.33-48.08,0-71Z"/><ellipse class="cls-6" cx="288.27" cy="178" rx="9" ry="36" transform="translate(-41.43 255.97) rotate(-45)"/><ellipse class="cls-6" cx="522.27" cy="178" rx="36" ry="9" transform="translate(27.1 421.43) rotate(-45)"/><path class="cls-6" d="M442.27,273c-14,4-12.76,11-28.5,11s-17.5-7-28.5-11c-5.71-2.08,13.26-11,29-11S448.11,271.33,442.27,273Z"/><ellipse class="cls-7" cx="269.27" cy="238.5" rx="47" ry="20.5"/><ellipse class="cls-7" cx="548.27" cy="238.5" rx="47" ry="20.5"/><path class="cls-8" d="M174.81,255.16C140.37,228.7,99.93,209.1,57,201.79c-5-.81-10.54-1.62-15.55-2-6.94-.79-13.93-.82-20.94-.94,55.81-4.78,113.25,19.26,154.34,56.32Z"/><path class="cls-8" d="M144.49,283.43c-27.9-15-59.46-22.81-91-24.19a267.27,267.27,0,0,0-31.74.8c41.12-8.09,87.92-.37,122.78,23.39Z"/><path class="cls-8" d="M148.72,315.49a526.56,526.56,0,0,0-66.52,5.43c-22,3.36-43.76,8.49-64,17.82,35.87-21.32,89.42-26.39,130.53-23.25Z"/><path class="cls-8" d="M635.19,255.16c41.09-37.06,98.53-61.1,154.34-56.32-7,.12-14,.15-20.94.94-5,.39-10.57,1.2-15.55,2-43,7.31-83.41,26.91-117.85,53.37Z"/><path class="cls-8" d="M665.51,283.43C700.37,259.67,747.16,252,788.29,260a267.27,267.27,0,0,0-31.74-.8c-31.58,1.38-63.14,9.15-91,24.19Z"/><path class="cls-8" d="M661.28,315.49c41.09-3.14,94.64,1.92,130.53,23.25-20.25-9.33-42.06-14.46-64-17.82a526.56,526.56,0,0,0-66.52-5.43Z"/></g></svg>