<svg id="圖層_5" data-name="圖層 5" xmlns="http://www.w3.org/2000/svg" xmlns:xlink="http://www.w3.org/1999/xlink" viewBox="0 0 150 150"><defs><style>.cls-1{fill:#07be00;}.cls-2{fill:#8cc63f;}.cls-3{fill:#006837;}.cls-4{fill:url(#未命名漸層_4);}</style><linearGradient id="未命名漸層_4" x1="75.35" y1="117.14" x2="74.94" y2="155.17" gradientUnits="userSpaceOnUse"><stop offset="0" stop-color="#d0d0d0"/><stop offset="1"/></linearGradient></defs><path class="cls-1" d="M59.51,43.49c-2,3.51-3.53,6.72-3.25,10.1.17,2.67.89,4.58.69,7.59-.35,4.16-.5,8.88.49,13,1.1,4.63,3.38,8.43,5.66,12.76a27,27,0,0,1,2.61,7.53c.87,5.69-.45,11.65-1.9,17l-.11.38,0,.09a.81.81,0,0,1,0,.16.25.25,0,0,1-.06.14.13.13,0,0,1,0,.08c-1,1.81.67,5.11,1.41,7.76,1.47,4.48,3.21,10.37,1.23,15.23a1.1,1.1,0,0,1-1.77.36A40,40,0,0,0,59,131.92C48.94,126.55,41,117.09,45.73,105c1.24-2.75,2.88-5.32,4-7.89,1.2-3,2.57-5.55,3.57-8.78a15,15,0,0,0-3.18-14.56c-2.55-2.58-5.76-4.79-7.56-8.15-3-5.17-2.51-12.37.79-17.62A14.29,14.29,0,0,1,54.8,41.13c1.28,0,6.09.06,4.71,2.36Z"/><path class="cls-2" d="M43.7,46.37c2,5.55,3.47,10.89,6,15.78a30.74,30.74,0,0,1,1.92,4,38.65,38.65,0,0,1,3.77,12.08c.77,4.58-.3,9.31-1.12,13.74a29.48,29.48,0,0,0,.25,12.75,52.67,52.67,0,0,0,4,10.94c1,2.65,1.36,5,2.52,7.83,1.34,3.86,3.32,7.94,3.82,12.29A1.15,1.15,0,0,1,63.58,137,23.44,23.44,0,0,1,50.37,132c-4-3.29-7.32-8.59-7.46-14.05a16.4,16.4,0,0,1,2-8c2.34-3.22,4.06-7.16,3.4-11.2-.41-4-2.78-7.67-5.06-10.89-2.73-3.78-4.42-7.91-7.46-11.25a17.43,17.43,0,0,1-1.65-2.53c-5.31-9.73-1.71-23,8-28.44a1.15,1.15,0,0,1,1.64.74Z"/><path class="cls-2" d="M102.65,35.84c9.55,5.32,13.37,20.9,5,28.89a19.72,19.72,0,0,1-2.37,2A13.88,13.88,0,0,0,99.34,75c-1.22,4.22-.41,8.78.65,13,1.5,5.92,1.8,12.09,3.2,17.89,2.52,15-8.29,27.53-22.54,30.48a1.08,1.08,0,0,1-1.32-1.2c.76-4.75,2.72-9,3.79-13.33a30.68,30.68,0,0,0,1.14-9.37c-.12-3.81-.41-8.29.15-11.93.57-4.93,1.46-9.66,3.77-14.09,2.16-4.29,4.62-8.4,6-13a57.13,57.13,0,0,0,1.91-10.75,11.61,11.61,0,0,0,.25-1.92c-.14-2.19-.72-4.59-.38-6.5.27-1.54.67-3.16,1.07-4.93a86.27,86.27,0,0,1,4-12.81,1.17,1.17,0,0,1,1.66-.69Z"/><path class="cls-3" d="M75.36,39.51c-2.52,9.82-5,18.58-.58,27.69,1.58,2.83,3.32,5.48,3.6,9.26a14.23,14.23,0,0,1-2,8.57c-2.51,4.17-5.45,7-6.12,11.77-.65,3.31,0,6.12.72,9.41,1.11,7.9,4.57,16.63,1.63,24.72a.79.79,0,0,1-1.35.18c-7.51-9.33-18.7-23.47-9.33-35.21,2.45-2.23,5.46-4.36,7-7.16,1.87-3,2.15-6.92-.65-9.2-1-.9-2.08-2.07-3.12-3a14.42,14.42,0,0,1-1.16-1.18C58.4,69.87,56.2,61,59,53.66A23.93,23.93,0,0,1,74.4,38.49a.8.8,0,0,1,1,1Z"/><path class="cls-1" d="M92.49,35.79C92.85,43.93,96,51,94.09,58.92,92.68,63.06,90.39,67.64,90,72c-1,7.43,2.75,14.58,1.53,22.19-.82,5.17-3.8,10.16-6.4,14.33-.37.56-.79,1.14-1.14,1.65v.07s-.05.07,0,.09,0,0-.08,0c-.5.09-.69.92-.87,1.67-1,6.27.18,15.18-5,20.49a1.26,1.26,0,0,1-2-.27c-2.85-4.15-5.8-6.21-8.62-10.18a23.08,23.08,0,0,1-4.56-12,18.62,18.62,0,0,1,4.93-13.76c3.1-3,6-5.35,8.88-8.36,4.45-3.88,8.33-9.35,7-15.7C83,69,80.6,66.16,79,63.1c-3.39-5.57-2.6-12.3-.11-18.12a19.68,19.68,0,0,1,8-9.38,10.8,10.8,0,0,1,4.39-1.39,1.1,1.1,0,0,1,1.19,1l0,.56Z"/><path class="cls-3" d="M110.24,48.29c-.95,10.45-1.64,19.61-5.8,29A17.69,17.69,0,0,1,97.57,87C92.32,90.27,87.24,93.2,88,100.13c.08,7.35-2.21,13.4-3.8,20.68-.89,3.63-2.11,8.21-5.2,11.51a.81.81,0,0,1-1.36-.34c-1-3.46-2.55-7.8-3.21-11.33-1.19-5.93-.91-13.14,2.1-18.7a30.88,30.88,0,0,1,3.1-4.6c1.75-1.86,3.86-3.53,5.4-5.22,8.26-8.73,4.92-15.9,7.46-25.9,2.43-8,8.33-16.27,16.73-18.92a.82.82,0,0,1,1,1Z"/><path class="cls-4" d="M98,150H52a23,23,0,0,1,23-23h0a23,23,0,0,1,23,23Z"/></svg>